<?xml version="1.0" encoding="utf-8"?>
<!-- Generator: Adobe Illustrator 23.0.1, SVG Export Plug-In . SVG Version: 6.00 Build 0)  -->
<svg version="1.1" id="Livello_1" xmlns="http://www.w3.org/2000/svg" xmlns:xlink="http://www.w3.org/1999/xlink" x="0px" y="0px"
	 viewBox="0 0 1920 2000" style="enable-background:new 0 0 1920 2000;" xml:space="preserve">
<style type="text/css">
	.st0{fill:url(#SVGID_1_);}
	.st1{fill:url(#SVGID_2_);}
	.st2{fill:#377286;}
	.st3{fill:#ABC0BF;}
	.st4{fill:#B6BCBB;}
	.st5{fill:#64898F;}
	.st6{fill:none;stroke:#173D51;stroke-miterlimit:10;}
	.st7{fill:#9AA2A0;}
	.st8{fill:#B0B6B5;}
	.st9{fill:#3A6272;}
	.st10{fill:#5F7F83;}
	.st11{fill:#8DA9A9;}
	.st12{fill:#74B1B7;}
	.st13{fill:#5096A3;}
	.st14{fill:#E2E5E1;}
	.st15{fill:#B1B6B2;}
	.st16{fill:#E6E3DD;}
	.st17{fill:#D0D0CA;}
	.st18{fill:#91AAAF;}
	.st19{fill:#5C737D;}
	.st20{fill:#516F7C;}
	.st21{fill:#1D3F50;}
	.st22{fill:#5F808B;}
	.st23{fill:#1E4255;}
	.st24{fill:#173D51;}
	.st25{fill:#122C3C;}
	.st26{fill:none;stroke:#5C737D;stroke-miterlimit:10;}
	.st27{fill:#96BCBE;}
	.st28{fill:#316175;}
	.st29{fill:#C1DDD7;}
	.st30{fill:#7AB1B1;}
	.st31{fill:#255469;}
	.st32{fill:#2B5C6F;}
	.st33{fill:#C0DAD9;}
	.st34{fill:#97B7B4;}
	.st35{fill:#A3C8C8;}
	.st36{fill:#77AAB2;}
	.st37{fill:#7CABB2;}
	.st38{fill:#5D929B;}
	.st39{fill:#488390;}
	.st40{fill:#46808A;}
	.st41{fill:#2A687B;}
	.st42{fill:#3A6F82;}
	.st43{fill:#1E4D62;}
	.st44{fill:#458896;}
</style>
<linearGradient id="SVGID_1_" gradientUnits="userSpaceOnUse" x1="960.5" y1="282" x2="960.5" y2="2008" gradientTransform="matrix(1 0 0 1 0 2)">
	<stop  offset="0" style="stop-color:#458896"/>
	<stop  offset="1" style="stop-color:#122C3C"/>
</linearGradient>
<rect x="-30" y="284" class="st0" width="1981" height="1726"/>
<linearGradient id="SVGID_2_" gradientUnits="userSpaceOnUse" x1="962.5" y1="290" x2="962.5" y2="-18" gradientTransform="matrix(1 0 0 1 0 2)">
	<stop  offset="0" style="stop-color:#D0D0CA"/>
	<stop  offset="1" style="stop-color:#91AAAF"/>
</linearGradient>
<rect x="-28" y="-16" class="st1" width="1981" height="308"/>
<polygon class="st2" points="1081,304 1101,306 1135,310 1175,310 1220,320 1252,320 1215,310 1195,308 1158,302 1154,302 
	1163.5,309.5 1140,302 1107.5,302.5 1079.5,300.5 "/>
<path class="st3" d="M1398.5,304.5l-18,8h-54l-29,5l-46-5h-27.3l27.3,8h10.3l26.3,1.7l58.4-1.7l30-5l20-3l36-2c0,0-13-7-15-6
	S1398.5,304.5,1398.5,304.5z"/>
<polygon class="st4" points="1637.4,280.6 1652.5,284.5 1624.5,286.5 1617.5,296.5 1584.5,302.5 1549.5,309.5 1491.1,311.5 
	1472.5,313.5 1442.5,300.5 1469.5,298.5 1511.5,297.5 1529.5,288.5 1567.5,283.5 1634.5,283.5 "/>
<polygon class="st5" points="1153.5,291.5 1184.5,300.5 1187.5,296.5 1219.5,298.5 1209.5,304.5 1214.5,310.5 1224.5,312.5 
	1255.5,312.5 1297.5,317.5 1326.5,312.5 1302.5,310.5 1294.5,312.5 1264.5,302.5 1300.5,300.5 1318.5,304.5 1365.5,297.5 
	1386.5,296.5 1363.5,291.5 1344.5,293.5 1395.5,283.5 1372.5,283.5 1356.5,283.5 1339.5,286.5 1318.5,289.5 1304.5,287.5 
	1318.5,281.5 1308.5,281.5 1328.5,272.5 1291.5,278.5 1282.5,279.5 1297.5,272.5 1279.5,272.5 1272.5,275.5 1284.5,267.5 
	1259.5,269.5 1239.8,269 1234.5,266.5 1217.5,272.5 1206.5,267.5 1171.5,269.5 1159.5,267.5 1138.5,268.5 1141.5,269.5 
	1139.5,272.5 1176.5,274.5 1179.5,275.5 1190.5,273.5 1189.5,279.5 1155.5,278.5 1179.5,284.5 1168.5,287.5 "/>
<polygon class="st6" points="1221.5,294.5 1236.5,297.5 1246.5,294.5 "/>
<polygon class="st7" points="1209.5,266.5 1225.5,269.5 1246.5,268.5 1234.5,265.5 "/>
<path class="st8" d="M1322.8,268.4l-45.9-2.9l12.6,3l-23,1l13,3l-7,4l-38,1l-8,5l35-2l10,7l-9,5l-41,2l37,2l4,4l28,2h32l24,7l-9-7
	l5-0.3l55,8.3l-5-6l10-5l-32-5l-3,6l-31-8l26-8l-24-6l34,1l1-7l-11,3l-2-1c0,0-40-2-39-2S1322.8,268.4,1322.8,268.4z"/>
<path class="st9" d="M1426.5,267.5l10,2l45-4h61l54,4l-43,5c0,0,3,2,5,3s25,1,25,1l-6-3l7-3h20l-11,11h-42h-14h-39l-38,6l-15-2l15-6
	h-10l20-9l-37,6l-9,1l15-7h-19.4l-5.6,3L1426.5,267.5z"/>
<path class="st10" d="M1601.7,304.4l26.8-9.9l4-5l20-5l-44,2l-2,3l9,1l-42,11c0,0-90,9-88,9s22.5,1.9,22.5,1.9l55.5,0.1l18-8
	L1601.7,304.4z"/>
<polygon class="st11" points="1358.5,292.5 1374.5,294.5 1401.5,295.5 1418.5,299.5 1411.5,290.5 1383.5,289.5 "/>
<g>
	<polygon class="st2" points="1740,304 1720,306 1686,310 1646,310 1601,320 1569,320 1606,310 1626,308 1663,302 1667,302 
		1657.5,309.5 1681,302 1713.5,302.5 1741.5,300.5 	"/>
	<path class="st3" d="M1422.5,304.5l18,8h54l29,5l46-5h27.3l-27.3,8h-10.3l-26.3,1.7l-58.4-1.7l-30-5l-20-3l-36-2c0,0,13-7,15-6
		S1422.5,304.5,1422.5,304.5z"/>
	<polygon class="st4" points="1366.6,280.6 1351.5,284.5 1379.5,286.5 1386.5,296.5 1419.5,302.5 1454.5,309.5 1512.9,311.5 
		1531.5,313.5 1561.5,300.5 1534.5,298.5 1492.5,297.5 1474.5,288.5 1436.5,283.5 1369.5,283.5 	"/>
	<polygon class="st5" points="1667.5,291.5 1636.5,300.5 1633.5,296.5 1601.5,298.5 1611.5,304.5 1606.5,310.5 1596.5,312.5 
		1565.5,312.5 1523.5,317.5 1494.5,312.5 1518.5,310.5 1526.5,312.5 1556.5,302.5 1520.5,300.5 1502.5,304.5 1455.5,297.5 
		1434.5,296.5 1457.5,291.5 1476.5,293.5 1425.5,283.5 1448.5,283.5 1464.5,283.5 1481.5,286.5 1502.5,289.5 1516.5,287.5 
		1502.5,281.5 1512.5,281.5 1492.5,272.5 1529.5,278.5 1538.5,279.5 1523.5,272.5 1541.5,272.5 1548.5,275.5 1536.5,267.5 
		1561.5,269.5 1581.3,269 1586.5,266.5 1603.5,272.5 1614.5,267.5 1649.5,269.5 1661.5,267.5 1682.5,268.5 1679.5,269.5 
		1681.5,272.5 1644.5,274.5 1641.5,275.5 1630.5,273.5 1631.5,279.5 1665.5,278.5 1641.5,284.5 1652.5,287.5 	"/>
	<polygon class="st7" points="1753.5,266.5 1737.5,269.5 1716.5,268.5 1728.5,265.5 	"/>
	<path class="st8" d="M1681.2,268.4l45.9-2.9l-12.6,3l23,1l-13,3l7,4l38,1l8,5l-35-2l-10,7l9,5l41,2l-37,2l-4,4l-28,2h-32l-24,7l9-7
		l-5-0.3l-55,8.3l5-6l-10-5l32-5l3,6l31-8l-26-8l24-6l-34,1l-1-7l11,3l2-1c0,0,40-2,39-2S1681.2,268.4,1681.2,268.4z"/>
	<path class="st9" d="M1536.5,267.5l-10,2l-45-4h-61l-54,4l43,5c0,0-3,2-5,3s-25,1-25,1l6-3l-7-3h-20l11,11h42h14h39l38,6l15-2
		l-15-6h10l-20-9l37,6l9,1l-15-7h19.4l5.6,3L1536.5,267.5z"/>
	<path class="st10" d="M1402.3,304.4l-26.8-9.9l-4-5l-20-5l44,2l2,3l-9,1l42,11c0,0,90,9,88,9s-22.5,1.9-22.5,1.9l-55.5,0.1l-18-8
		L1402.3,304.4z"/>
	<polygon class="st11" points="1604.5,292.5 1588.5,294.5 1561.5,295.5 1544.5,299.5 1551.5,290.5 1579.5,289.5 	"/>
</g>
<g>
	<polygon class="st2" points="1109,303 1089,305 1055,309 1015,309 970,319 938,319 975,309 995,307 1032,301 1036,301 
		1026.5,308.5 1050,301 1082.5,301.5 1110.5,299.5 	"/>
	<path class="st3" d="M791.5,303.5l18,8h54l29,5l46-5h27.3l-27.3,8h-10.3l-26.3,1.7l-58.4-1.7l-30-5l-20-3l-36-2c0,0,13-7,15-6
		S791.5,303.5,791.5,303.5z"/>
	<polygon class="st4" points="735.6,279.6 720.5,283.5 748.5,285.5 755.5,295.5 788.5,301.5 823.5,308.5 881.9,310.5 900.5,312.5 
		930.5,299.5 903.5,297.5 861.5,296.5 843.5,287.5 805.5,282.5 738.5,282.5 	"/>
	<polygon class="st5" points="1036.5,290.5 1005.5,299.5 1002.5,295.5 970.5,297.5 980.5,303.5 975.5,309.5 965.5,311.5 
		934.5,311.5 892.5,316.5 863.5,311.5 887.5,309.5 895.5,311.5 925.5,301.5 889.5,299.5 871.5,303.5 824.5,296.5 803.5,295.5 
		826.5,290.5 845.5,292.5 794.5,282.5 817.5,282.5 833.5,282.5 850.5,285.5 871.5,288.5 885.5,286.5 871.5,280.5 881.5,280.5 
		861.5,271.5 898.5,277.5 907.5,278.5 892.5,271.5 910.5,271.5 917.5,274.5 905.5,266.5 930.5,268.5 950.3,268 955.5,265.5 
		972.5,271.5 983.5,266.5 1018.5,268.5 1030.5,266.5 1051.5,267.5 1048.5,268.5 1050.5,271.5 1013.5,273.5 1010.5,274.5 
		999.5,272.5 1000.5,278.5 1034.5,277.5 1010.5,283.5 1021.5,286.5 	"/>
	<polygon class="st7" points="1122.5,265.5 1106.5,268.5 1085.5,267.5 1097.5,264.5 	"/>
	<path class="st8" d="M1050.2,267.4l45.9-2.9l-12.6,3l23,1l-13,3l7,4l38,1l8,5l-35-2l-10,7l9,5l41,2l-37,2l-4,4l-28,2h-32l-24,7l9-7
		l-5-0.3l-55,8.3l5-6l-10-5l32-5l3,6l31-8l-26-8l24-6l-34,1l-1-7l11,3l2-1c0,0,40-2,39-2S1050.2,267.4,1050.2,267.4z"/>
	<path class="st9" d="M905.5,266.5l-10,2l-45-4h-61l-54,4l43,5c0,0-3,2-5,3s-25,1-25,1l6-3l-7-3h-20l11,11h42h14h39l38,6l15-2l-15-6
		h10l-20-9l37,6l9,1l-15-7h19.4l5.6,3L905.5,266.5z"/>
	<path class="st10" d="M771.3,303.4l-26.8-9.9l-4-5l-20-5l44,2l2,3l-9,1l42,11c0,0,90,9,88,9s-22.5,1.9-22.5,1.9l-55.5,0.1l-18-8
		L771.3,303.4z"/>
	<polygon class="st11" points="973.5,291.5 957.5,293.5 930.5,294.5 913.5,298.5 920.5,289.5 948.5,288.5 	"/>
</g>
<g>
	<polygon class="st2" points="1640,307 1660,309 1694,313 1734,313 1779,323 1811,323 1774,313 1754,311 1717,305 1713,305 
		1722.5,312.5 1699,305 1666.5,305.5 1638.5,303.5 	"/>
	<path class="st3" d="M1957.5,307.5l-18,8h-54l-29,5l-46-5h-27.3l27.3,8h10.3l26.3,1.7l58.4-1.7l30-5l20-3l36-2c0,0-13-7-15-6
		S1957.5,307.5,1957.5,307.5z"/>
	<polygon class="st4" points="2013.4,283.6 2028.5,287.5 2000.5,289.5 1993.5,299.5 1960.5,305.5 1925.5,312.5 1867.1,314.5 
		1848.5,316.5 1818.5,303.5 1845.5,301.5 1887.5,300.5 1905.5,291.5 1943.5,286.5 2010.5,286.5 	"/>
	<polygon class="st5" points="1712.5,294.5 1743.5,303.5 1746.5,299.5 1778.5,301.5 1768.5,307.5 1773.5,313.5 1783.5,315.5 
		1814.5,315.5 1856.5,320.5 1885.5,315.5 1861.5,313.5 1853.5,315.5 1823.5,305.5 1859.5,303.5 1877.5,307.5 1924.5,300.5 
		1945.5,299.5 1922.5,294.5 1903.5,296.5 1954.5,286.5 1931.5,286.5 1915.5,286.5 1898.5,289.5 1877.5,292.5 1863.5,290.5 
		1877.5,284.5 1867.5,284.5 1887.5,275.5 1850.5,281.5 1841.5,282.5 1856.5,275.5 1838.5,275.5 1831.5,278.5 1843.5,270.5 
		1818.5,272.5 1798.8,272 1793.5,269.5 1776.5,275.5 1765.5,270.5 1730.5,272.5 1718.5,270.5 1697.5,271.5 1700.5,272.5 
		1698.5,275.5 1735.5,277.5 1738.5,278.5 1749.5,276.5 1748.5,282.5 1714.5,281.5 1738.5,287.5 1727.5,290.5 	"/>
	<polygon class="st7" points="1626.5,269.5 1642.5,272.5 1663.5,271.5 1651.5,268.5 	"/>
	<path class="st8" d="M1698.8,271.4l-45.9-2.9l12.6,3l-23,1l13,3l-7,4l-38,1l-8,5l35-2l10,7l-9,5l-41,2l37,2l4,4l28,2h32l24,7l-9-7
		l5-0.3l55,8.3l-5-6l10-5l-32-5l-3,6l-31-8l26-8l-24-6l34,1l1-7l-11,3l-2-1c0,0-40-2-39-2S1698.8,271.4,1698.8,271.4z"/>
	<path class="st9" d="M1843.5,270.5l10,2l45-4h61l54,4l-43,5c0,0,3,2,5,3s25,1,25,1l-6-3l7-3h20l-11,11h-42h-14h-39l-38,6l-15-2
		l15-6h-10l20-9l-37,6l-9,1l15-7h-19.4l-5.6,3L1843.5,270.5z"/>
	<path class="st10" d="M1977.7,307.4l26.8-9.9l4-5l20-5l-44,2l-2,3l9,1l-42,11c0,0-90,9-88,9s22.5,1.9,22.5,1.9l55.5,0.1l18-8
		L1977.7,307.4z"/>
	<polygon class="st11" points="1775.5,295.5 1791.5,297.5 1818.5,298.5 1835.5,302.5 1828.5,293.5 1800.5,292.5 	"/>
</g>
<g>
	<polygon class="st2" points="550,305 530,307 496,311 456,311 411,321 379,321 416,311 436,309 473,303 477,303 467.5,310.5 
		491,303 523.5,303.5 551.5,301.5 	"/>
	<path class="st3" d="M232.5,305.5l18,8h54l29,5l46-5h27.3l-27.3,8h-10.3l-26.3,1.7l-58.4-1.7l-30-5l-20-3l-36-2c0,0,13-7,15-6
		S232.5,305.5,232.5,305.5z"/>
	<polygon class="st4" points="176.6,281.6 161.5,285.5 189.5,287.5 196.5,297.5 229.5,303.5 264.5,310.5 322.9,312.5 341.5,314.5 
		371.5,301.5 344.5,299.5 302.5,298.5 284.5,289.5 246.5,284.5 179.5,284.5 	"/>
	<polygon class="st5" points="477.5,292.5 446.5,301.5 443.5,297.5 411.5,299.5 421.5,305.5 416.5,311.5 406.5,313.5 375.5,313.5 
		333.5,318.5 304.5,313.5 328.5,311.5 336.5,313.5 366.5,303.5 330.5,301.5 312.5,305.5 265.5,298.5 244.5,297.5 267.5,292.5 
		286.5,294.5 235.5,284.5 258.5,284.5 274.5,284.5 291.5,287.5 312.5,290.5 326.5,288.5 312.5,282.5 322.5,282.5 302.5,273.5 
		339.5,279.5 348.5,280.5 333.5,273.5 351.5,273.5 358.5,276.5 346.5,268.5 371.5,270.5 391.3,270 396.5,267.5 413.5,273.5 
		424.5,268.5 459.5,270.5 471.5,268.5 492.5,269.5 489.5,270.5 491.5,273.5 454.5,275.5 451.5,276.5 440.5,274.5 441.5,280.5 
		475.5,279.5 451.5,285.5 462.5,288.5 	"/>
	<polygon class="st7" points="563.5,267.5 547.5,270.5 526.5,269.5 538.5,266.5 	"/>
	<path class="st8" d="M491.2,269.4l45.9-2.9l-12.6,3l23,1l-13,3l7,4l38,1l8,5l-35-2l-10,7l9,5l41,2l-37,2l-4,4l-28,2h-32l-24,7l9-7
		l-5-0.3l-55,8.3l5-6l-10-5l32-5l3,6l31-8l-26-8l24-6l-34,1l-1-7l11,3l2-1c0,0,40-2,39-2S491.2,269.4,491.2,269.4z"/>
	<path class="st9" d="M346.5,268.5l-10,2l-45-4h-61l-54,4l43,5c0,0-3,2-5,3s-25,1-25,1l6-3l-7-3h-20l11,11h42h14h39l38,6l15-2l-15-6
		h10l-20-9l37,6l9,1l-15-7h19.4l5.6,3L346.5,268.5z"/>
	<path class="st10" d="M212.3,305.4l-26.8-9.9l-4-5l-20-5l44,2l2,3l-9,1l42,11c0,0,90,9,88,9s-22.5,1.9-22.5,1.9l-55.5,0.1l-18-8
		L212.3,305.4z"/>
	<polygon class="st11" points="414.5,293.5 398.5,295.5 371.5,296.5 354.5,300.5 361.5,291.5 389.5,290.5 	"/>
</g>
<g>
	<polygon class="st2" points="473,305 493,307 527,311 567,311 612,321 644,321 607,311 587,309 550,303 546,303 555.5,310.5 
		532,303 499.5,303.5 471.5,301.5 	"/>
	<path class="st3" d="M790.5,305.5l-18,8h-54l-29,5l-46-5h-27.3l27.3,8h10.3l26.3,1.7l58.4-1.7l30-5l20-3l36-2c0,0-13-7-15-6
		S790.5,305.5,790.5,305.5z"/>
	<polygon class="st4" points="846.4,281.6 861.5,285.5 833.5,287.5 826.5,297.5 793.5,303.5 758.5,310.5 700.1,312.5 681.5,314.5 
		651.5,301.5 678.5,299.5 720.5,298.5 738.5,289.5 776.5,284.5 843.5,284.5 	"/>
	<polygon class="st5" points="545.5,292.5 576.5,301.5 579.5,297.5 611.5,299.5 601.5,305.5 606.5,311.5 616.5,313.5 647.5,313.5 
		689.5,318.5 718.5,313.5 694.5,311.5 686.5,313.5 656.5,303.5 692.5,301.5 710.5,305.5 757.5,298.5 778.5,297.5 755.5,292.5 
		736.5,294.5 787.5,284.5 764.5,284.5 748.5,284.5 731.5,287.5 710.5,290.5 696.5,288.5 710.5,282.5 700.5,282.5 720.5,273.5 
		683.5,279.5 674.5,280.5 689.5,273.5 671.5,273.5 664.5,276.5 676.5,268.5 651.5,270.5 631.8,270 626.5,267.5 609.5,273.5 
		598.5,268.5 563.5,270.5 551.5,268.5 530.5,269.5 533.5,270.5 531.5,273.5 568.5,275.5 571.5,276.5 582.5,274.5 581.5,280.5 
		547.5,279.5 571.5,285.5 560.5,288.5 	"/>
	<polygon class="st7" points="459.5,267.5 475.5,270.5 496.5,269.5 484.5,266.5 	"/>
	<path class="st8" d="M531.8,269.4l-45.9-2.9l12.6,3l-23,1l13,3l-7,4l-38,1l-8,5l35-2l10,7l-9,5l-41,2l37,2l4,4l28,2h32l24,7l-9-7
		l5-0.3l55,8.3l-5-6l10-5l-32-5l-3,6l-31-8l26-8l-24-6l34,1l1-7l-11,3l-2-1c0,0-40-2-39-2S531.8,269.4,531.8,269.4z"/>
	<path class="st9" d="M676.5,268.5l10,2l45-4h61l54,4l-43,5c0,0,3,2,5,3s25,1,25,1l-6-3l7-3h20l-11,11h-42h-14h-39l-38,6l-15-2l15-6
		h-10l20-9l-37,6l-9,1l15-7h-19.4l-5.6,3L676.5,268.5z"/>
	<path class="st10" d="M810.7,305.4l26.8-9.9l4-5l20-5l-44,2l-2,3l9,1l-42,11c0,0-90,9-88,9s22.5,1.9,22.5,1.9l55.5,0.1l18-8
		L810.7,305.4z"/>
	<polygon class="st11" points="608.5,293.5 624.5,295.5 651.5,296.5 668.5,300.5 661.5,291.5 633.5,290.5 	"/>
</g>
<g>
	<polygon class="st2" points="-99,308 -79,310 -45,314 -5,314 40,324 72,324 35,314 15,312 -22,306 -26,306 -16.5,313.5 -40,306 
		-72.5,306.5 -100.5,304.5 	"/>
	<path class="st3" d="M218.5,308.5l-18,8h-54l-29,5l-46-5H44.3l27.3,8h10.3l26.3,1.7l58.4-1.7l30-5l20-3l36-2c0,0-13-7-15-6
		S218.5,308.5,218.5,308.5z"/>
	<polygon class="st4" points="274.4,284.6 289.5,288.5 261.5,290.5 254.5,300.5 221.5,306.5 186.5,313.5 128.1,315.5 109.5,317.5 
		79.5,304.5 106.5,302.5 148.5,301.5 166.5,292.5 204.5,287.5 271.5,287.5 	"/>
	<polygon class="st5" points="-26.5,295.5 4.5,304.5 7.5,300.5 39.5,302.5 29.5,308.5 34.5,314.5 44.5,316.5 75.5,316.5 
		117.5,321.5 146.5,316.5 122.5,314.5 114.5,316.5 84.5,306.5 120.5,304.5 138.5,308.5 185.5,301.5 206.5,300.5 183.5,295.5 
		164.5,297.5 215.5,287.5 192.5,287.5 176.5,287.5 159.5,290.5 138.5,293.5 124.5,291.5 138.5,285.5 128.5,285.5 148.5,276.5 
		111.5,282.5 102.5,283.5 117.5,276.5 99.5,276.5 92.5,279.5 104.5,271.5 79.5,273.5 59.8,273 54.5,270.5 37.5,276.5 26.5,271.5 
		-8.5,273.5 -20.5,271.5 -41.5,272.5 -38.5,273.5 -40.5,276.5 -3.5,278.5 -0.5,279.5 10.5,277.5 9.5,283.5 -24.5,282.5 -0.5,288.5 
		-11.5,291.5 	"/>
	<polygon class="st7" points="-112.5,270.5 -96.5,273.5 -75.5,272.5 -87.5,269.5 	"/>
	<path class="st8" d="M-40.2,272.4l-45.9-2.9l12.6,3l-23,1l13,3l-7,4l-38,1l-8,5l35-2l10,7l-9,5l-41,2l37,2l4,4l28,2h32l24,7l-9-7
		l5-0.3l55,8.3l-5-6l10-5l-32-5l-3,6l-31-8l26-8l-24-6l34,1l1-7l-11,3l-2-1c0,0-40-2-39-2S-40.2,272.4-40.2,272.4z"/>
	<path class="st9" d="M104.5,271.5l10,2l45-4h61l54,4l-43,5c0,0,3,2,5,3s25,1,25,1l-6-3l7-3h20l-11,11h-42h-14h-39l-38,6l-15-2l15-6
		h-10l20-9l-37,6l-9,1l15-7H98.1l-5.6,3L104.5,271.5z"/>
	<path class="st10" d="M238.7,308.4l26.8-9.9l4-5l20-5l-44,2l-2,3l9,1l-42,11c0,0-90,9-88,9s22.5,1.9,22.5,1.9l55.5,0.1l18-8
		L238.7,308.4z"/>
	<polygon class="st11" points="36.5,296.5 52.5,298.5 79.5,299.5 96.5,303.5 89.5,294.5 61.5,293.5 	"/>
</g>
<g>
	<polygon class="st12" points="1153.5,510.5 1138.5,499.5 1127.5,499.5 1114.5,510.5 1109.5,512.5 1100.5,543.5 1094.5,552.5 
		1090.5,552.5 1097.5,537.5 1097.5,526.5 1090.5,544.5 1090.5,526.5 1086.5,519.5 1094.5,511.5 1094.5,504.5 1092.5,499.5 
		1086.5,513.5 1081.5,501.5 1085.5,482.5 1084.3,465.9 1086.5,460.5 1100.5,444.5 1115.5,424.5 1121.5,396.5 1115.3,411.9 
		1096.5,421.5 1100.5,408.5 1110.5,403.5 1121.5,394.5 1109.5,398.5 1110.5,390.5 1138.5,341.5 1143.5,341.5 1127.5,369.5 
		1153.5,341.5 1172.5,331.5 1187.5,315.5 1174.5,312.5 1157.5,326.5 1143.5,331.5 1146.5,325.5 1142.5,319.5 1146.5,309.5 
		1148.5,309.5 1174.5,309.5 1197.5,315.5 1219.5,319.5 1212.5,331.5 1212.5,322.5 1201.5,337.5 1209.5,335.5 1194.5,348.5 
		1185.5,362.5 1209.5,343.5 1194.5,365.5 1177.5,385.5 1165.5,402.5 1153.5,412.5 1134.5,440.5 1124.5,482.5 1141.5,439.5 
		1134.5,468.5 1149.5,433.5 1138.5,481.5 1144.5,480.5 1144.5,493.5 1148.5,497.5 1151.5,497.5 1157.5,501.5 1170.5,501.5 
		1175.5,511.5 1157.5,509.5 	"/>
	<polygon class="st13" points="1239.5,479.5 1333.5,599.5 1346.5,625.5 1381.5,599.5 1403.5,570.5 1422.5,510.5 1373.5,455.5 
		1309.5,351.5 1242.5,329.5 1232.5,331.5 1223.5,343.5 1217.3,351.1 1199,365.6 1192.5,374.5 1187.5,385.5 1206.5,372.5 
		1198.5,390.5 1206.5,447.5 	"/>
	<polygon class="st14" points="1163.5,265.5 1174.5,233.5 1157.5,259.5 	"/>
	<polygon class="st14" points="1192.5,206.5 1206.5,194.5 1199.5,188.5 	"/>
	<polygon class="st15" points="1174.5,233.5 1192.5,206.5 1206.5,197.5 1231.5,188.5 1250.5,169.5 1272.5,169.5 1251.5,164.5 
		1265.5,161.5 1272.5,157.5 1281.5,157.5 1288.5,182.5 1294.5,181.5 1303.5,206.5 1339.5,265.5 1291.5,269.5 1313.5,251.5 
		1294.5,223.5 1273.5,245.5 1256.5,265.5 1275.5,231.5 1284.5,213.5 1280.5,206.5 1253.5,233.5 1275.5,202.5 1274.5,192.5 
		1264.5,202.5 1271.5,188.5 1270.5,174.5 1261.5,178.5 1265.5,180.5 1256.5,183.5 1248.5,191.5 1256.5,194.5 1245.5,197.5 
		1209.5,229.5 1246.5,209.5 1192.5,254.5 1206.5,249.5 1187.5,265.5 1171.5,269.5 1163.5,265.5 	"/>
	<polygon class="st16" points="1206.5,194.5 1199.5,188.5 1208.5,185.5 1216.5,171.5 1230.5,161.5 1234.5,161.5 1245.5,151.5 
		1274.5,149.5 1281.5,157.5 1272.5,157.5 1265.5,161.5 1251.5,164.5 1272.5,169.5 1251.5,169.5 1231.5,188.5 1206.5,197.5 
		1192.5,206.5 	"/>
	<polygon class="st17" points="1212.5,184.5 1224.5,175.5 1234.5,161.5 1225.5,166.5 	"/>
	<polygon class="st18" points="1263.5,213.5 1238.5,243.5 1248.5,239.5 1234.5,253.5 1219.5,269.5 1228.5,265.5 1255.5,239.5 
		1269.5,231.5 1282.8,210.5 1284.5,213.5 1256.5,265.5 1284.5,234 1277.5,250.5 1259.5,269.5 1241.5,269.5 1234.5,267.5 
		1217.5,272.5 1206.5,267.5 1219.5,249.5 1227.5,248.5 1226.5,253.5 1234.5,244.5 1223.5,246.5 	"/>
	<polygon class="st19" points="1294.5,181.5 1303.5,206.5 1339.5,265.5 1352.5,265.5 1310.5,205.5 1301.1,199.9 1300.5,190.5 
		1294.5,181.5 1284.5,168.2 1288.5,182.5 	"/>
	<path class="st17" d="M1157.5,259.5l2,8l12,2l35-2l13-18l8-1l-1,5l8-9l-11,2l40-33l-25,30l10-4l-29,30l9-4l27-26l14-8l13-21l-2-4
		l-27,27l22-31l-1-10l-11,11l8-15l-1-14l-9,4l4,2c0,0-9,4-9,3l-8,8l9,3l-12,3l-36,32l36-20l-53,45l14-5l-19,16l-16.3,3.9l-7.7-3.9
		L1157.5,259.5z"/>
	<polygon class="st20" points="1259.5,269.5 1285.5,267.5 1291.5,269.5 1313.5,251.5 1294.5,223.5 1284.5,233.5 1277.5,249.5 	"/>
	<polygon class="st21" points="1253.5,706.5 1270.5,732.5 1273.5,745.5 1283.5,745.5 1300.1,738 1312.5,728.5 1310.5,704.5 
		1315.5,691.5 1318.5,720.5 1321.5,682.5 1324.5,667 1324.5,699.5 1321.5,719.5 1307.5,739.5 1289.5,752.5 1274.5,752.5 
		1266.5,732.5 1247.5,708.5 	"/>
	<polygon class="st22" points="1229.5,629.5 1242.5,665.5 1244.5,680.5 1267.5,710.5 1248.5,692.5 1271.5,721.5 1253.5,706.5 
		1247.5,708.5 1239.5,687.5 1233.5,655.5 	"/>
	<polygon class="st23" points="1310.5,704.5 1299.5,733.5 1301.5,733.5 1304.5,733.5 1302.5,735.5 1299.5,738.5 1312.5,728.5 	"/>
	<polygon class="st24" points="1267.5,710.5 1285.5,731.5 1285.5,736.5 1299.5,733.5 1305.5,733.5 1299.5,738.5 1283.5,745.5 
		1273.5,745.5 1270.5,732.5 1253.5,706.5 1271.5,721.5 1248.5,692.5 	"/>
	<polygon class="st25" points="1289.5,752.5 1317.5,752.5 1333.5,745.5 1349.5,726.5 1353.5,706.5 1357.5,698.5 1363.5,676.5 
		1380.5,638.5 1384.5,619.5 1350.5,685.5 1333.5,702.5 1340.5,679.5 1340.5,659.8 1324.5,699.5 1321.5,719.5 1307.5,738.5 	"/>
	<polygon class="st26" points="1302.5,597.5 1316.5,617.5 1320.5,641.5 1324.5,649.5 1324.5,625.5 1322.5,619.5 1322.5,607.5 
		1313.5,608.5 	"/>
	<path class="st27" d="M1242.5,581.5l16-18h13l4,6l6-1l16,29l18,22v27l7,14l6-28h4v-9c0,0,8-11,8-12s0-19,0-19l-9-27l-13-25l-3-15
		l-8-22l-20-16l-7-14l2-26l-22-15l-18-27l-28-6l-13-14l-18,5l-11,16l-17,11l-8,14l-13,9l-10,42l17-43l-7,29l15-35l-11,48l6-1v13l4,4
		h3l5,4h14l5,10l-18-2l-5,1l24,23l18,23l26,12L1242.5,581.5z"/>
	<path class="st28" d="M1315.5,691.5l6-33l7-26h4v-9l8-12v-19l-9-27l15,25l5,25l5-12l-3-15l21-2l6-7l-3-19l11,16l4-11v16l5-11l6-22
		l4-3v-21h-6l-5-19l-12,2l-14-7l-9,3l-11-3l-6-15l-17-13l2,22l-17-19l-3-40l-10-13l-13-35l-18-31l-17-4l-22-2l-11,11l8-15l9-6l1-9
		l-9,9l-11,7l7-10l-9,7l-22,30l-15,11l17-20l15-22l-24,19l9-14l15-13l-8,2l11-15l-0.3,7.9l7.3-10.9h32l31,3l64-3l23-4l23,44l15,43
		l16,26l7,21v72l-11,21l-2,15l-12,29l-21,33l-34,66l-19,19l9-25v-19l-16,39c0,0,0-35,0-33s-3,16-3,16l-3,37L1315.5,691.5z"/>
	<polygon class="st29" points="1134.5,440.5 1138.5,433.5 1152.5,412.5 1165.5,402.5 1177.5,385.5 1192.5,374.5 1187.5,385.5 
		1206.5,372.5 1201.5,385.5 1183.5,390.5 1172.5,406.5 1155.5,417.5 1147.5,431.5 	"/>
	<polygon class="st30" points="1199,365.6 1219.5,349.5 1224.2,342.6 1216.5,347.5 1223.5,337.5 1214.5,344.5 	"/>
	<path class="st31" d="M1262.9,704.5c-2.4-2-2.4-21-2.4-21l6-7l-9-27l-3,11l-7-31l-11-27l7.5,26.7l6.5,31.3l-11-23l5,23l-15-31
		l13,36l2,15L1262.9,704.5z"/>
	<polygon class="st32" points="1229.5,573.8 1223.5,597.5 1229.5,629.5 1244.5,660.5 1239.5,637.5 1250.5,660.5 1244,629.2 
		1236.5,602.5 1248,631.7 1254.5,660.5 1257.5,649.5 1266.5,676.5 1275.5,674.5 1292.5,660.5 1309.5,625.5 1309.9,612.6 
		1297.5,597.5 1281.5,568.5 1275.5,568.5 1271.5,563.5 1258.5,563.5 1242.5,581.5 	"/>
	<polygon class="st33" points="1129.5,412.5 1145.5,396.5 1154.5,383.5 1177.5,359.5 1157.5,375.5 1142.5,383.5 	"/>
	<polygon class="st34" points="1187.5,315.5 1172.5,331.5 1153.5,341.5 1127.5,369.5 1143.5,341.5 1138.5,341.5 1143.5,331.5 
		1157.5,326.5 1174.5,312.5 	"/>
	<polygon class="st35" points="1121.5,396.5 1115.5,424.5 1101.5,444.5 1086.5,460.5 1079.5,477.5 1083.5,446.5 1092.5,423.5 
		1114.5,412.5 	"/>
	<polygon class="st36" points="1150.5,606.5 1177.5,578.5 1162.5,597.5 1172.5,592.5 1189.5,575.5 1204.5,568.5 1220.5,568.5 
		1209.7,563.5 1194.5,556.5 1184.5,563.5 1167.5,576.5 1150.5,597.5 1150.5,604.5 	"/>
	<polygon class="st26" points="1129.5,588.5 1137.5,588.5 1141.5,577.5 	"/>
	<polygon class="st37" points="1127.5,515.5 1137.5,524.5 1148.5,517.5 1141.5,526.5 1141.5,541.5 1145.5,563.5 1148.5,539.5 
		1155.5,528.5 1155.5,511.6 1143.7,503.3 1132.5,512.5 1144.5,509.5 1135.5,517.5 	"/>
	<polygon class="st38" points="1109.5,512.5 1127.5,512.5 1127.5,503.5 1118.5,508 1114.5,510.5 	"/>
	<polygon class="st39" points="1127.4,515.5 1121.4,512.4 1127.4,512.5 1127.6,503.5 1114.5,510.5 1127.6,499.5 1138.6,499.6 
		1143.7,503.3 1132.4,512.5 1144.5,509.5 1135.4,517.6 	"/>
	<polygon class="st40" points="1121.5,597.5 1143.5,590.5 1150.5,588.5 1155.5,583.5 1157.5,575.5 1184.5,559.5 1166.5,563.5 
		1191.4,552.5 1187.5,547.6 1164.5,556.5 1147.5,569.5 1138.5,575.5 1139.5,577.5 1139.6,579.3 1137.5,588.5 1129.5,588.5 	"/>
	<polygon class="st41" points="1137.5,523.5 1135.5,560.5 1127.5,590.8 1139.5,579.5 1139.5,575.5 1164.5,556.5 1187.5,547.5 
		1177.5,533.5 1155.5,511.6 1155.5,528.5 1148.5,539.5 1145.5,563.5 1141.5,543.1 1141.5,526.5 1148.5,517.5 	"/>
	<polygon class="st42" points="1112.5,623.5 1129.5,623.5 1143.5,606.5 1150.5,604.5 1177.1,579 1162.5,597.5 1172.5,592.5 
		1150.5,610.5 1147.5,615.5 1134.5,623.5 1124.5,627.5 1114.5,627.5 	"/>
	<polygon class="st43" points="1091.5,563.5 1087.5,588.5 1091.5,597.5 1100.5,606.5 1104.5,616.5 1121.5,597.5 1143.5,590.5 
		1150.5,588.5 1155.5,582.5 1157.5,575.5 1184.5,559.5 1166.5,563.5 1191.5,552.5 1194.5,556.5 1167.5,577.5 1150.5,597.5 
		1150.5,604.5 1143.5,606.5 1129.5,623.5 1112.5,623.5 1113.7,625.9 1106.5,623.5 1100.5,617.5 1092.5,617.5 1090.5,611.5 
		1087.5,602.5 1077.5,588.5 1072.5,582.5 1067.5,547.5 1067.5,533.5 1070.5,552.5 1072.5,503.5 1074.5,514.5 1079.5,487.5 
		1076.5,552.5 1083.5,581.5 	"/>
	<path class="st44" d="M1091.5,563.5l7.8-18.3l-4.8,7.3h-4l7-15v-11l-7,18v-18l-4-7l8-7v-9l-2-4l-5,11.6l-6-9.6l4-19l-1-17l-5,12
		l4-31l9-23l4-2l4-13l10-5l11-9l-12,4l1-8l28-49l9-17l-4-7.5l-36,69.5l-15.8,36.7l-12.2,28.3l-8,39l-4,43l3,19l2-49l2,11l5-27l-3,65
		l7.1,29.6L1091.5,563.5z"/>
	<polygon class="st12" points="1137.5,588.5 1129.9,588.5 1139.5,579.5 	"/>
</g>
<g>
	<polygon class="st2" points="2298.2,310.2 2278.2,312.2 2244.2,316.2 2204.2,316.2 2159.2,326.2 2127.2,326.2 2164.2,316.2 
		2184.2,314.2 2221.2,308.2 2225.2,308.2 2215.7,315.7 2239.2,308.2 2271.7,308.7 2299.7,306.7 	"/>
	<path class="st3" d="M1980.7,310.7l18,8h54l29,5l46-5h27.3l-27.3,8h-10.3l-26.3,1.7l-58.4-1.7l-30-5l-20-3l-36-2c0,0,13-7,15-6
		S1980.7,310.7,1980.7,310.7z"/>
	<polygon class="st4" points="1924.8,286.8 1909.7,290.7 1937.7,292.7 1944.7,302.7 1977.7,308.7 2012.7,315.7 2071.1,317.7 
		2089.7,319.7 2119.7,306.7 2092.7,304.7 2050.7,303.7 2032.7,294.7 1994.7,289.7 1927.7,289.7 	"/>
	<polygon class="st5" points="2225.7,297.7 2194.7,306.7 2191.7,302.7 2159.7,304.7 2169.7,310.7 2164.7,316.7 2154.7,318.7 
		2123.7,318.7 2081.7,323.7 2052.7,318.7 2076.7,316.7 2084.7,318.7 2114.7,308.7 2078.7,306.7 2060.7,310.7 2013.7,303.7 
		1992.7,302.7 2015.7,297.7 2034.7,299.7 1983.7,289.7 2006.7,289.7 2022.7,289.7 2039.7,292.7 2060.7,295.7 2074.7,293.7 
		2060.7,287.7 2070.7,287.7 2050.7,278.7 2087.7,284.7 2096.7,285.7 2081.7,278.7 2099.7,278.7 2106.7,281.7 2094.7,273.7 
		2119.7,275.7 2139.5,275.2 2144.7,272.7 2161.7,278.7 2172.7,273.7 2207.7,275.7 2219.7,273.7 2240.7,274.7 2237.7,275.7 
		2239.7,278.7 2202.7,280.7 2199.7,281.7 2188.7,279.7 2189.7,285.7 2223.7,284.7 2199.7,290.7 2210.7,293.7 	"/>
	<polygon class="st7" points="2311.7,272.7 2295.7,275.7 2274.7,274.7 2286.7,271.7 	"/>
	<path class="st8" d="M2239.4,274.6l45.9-2.9l-12.6,3l23,1l-13,3l7,4l38,1l8,5l-35-2l-10,7l9,5l41,2l-37,2l-4,4l-28,2h-32l-24,7l9-7
		l-5-0.3l-55,8.3l5-6l-10-5l32-5l3,6l31-8l-26-8l24-6l-34,1l-1-7l11,3l2-1c0,0,40-2,39-2S2239.4,274.6,2239.4,274.6z"/>
	<path class="st9" d="M2094.7,273.7l-10,2l-45-4h-61l-54,4l43,5c0,0-3,2-5,3s-25,1-25,1l6-3l-7-3h-20l11,11h42h14h39l38,6l15-2
		l-15-6h10l-20-9l37,6l9,1l-15-7h19.4l5.6,3L2094.7,273.7z"/>
	<path class="st10" d="M1960.5,310.6l-26.8-9.9l-4-5l-20-5l44,2l2,3l-9,1l42,11c0,0,90,9,88,9s-22.5,1.9-22.5,1.9l-55.5,0.1l-18-8
		L1960.5,310.6z"/>
	<polygon class="st11" points="2162.7,298.7 2146.7,300.7 2119.7,301.7 2102.7,305.7 2109.7,296.7 2137.7,295.7 	"/>
</g>
</svg>
